<svg xmlns="http://www.w3.org/2000/svg" xmlns:xlink="http://www.w3.org/1999/xlink" viewBox="0 0 1920 1080"><defs><style>.cls-1{fill:url(#Degradado_sin_nombre_12);}.cls-2{fill:#ffbe00;}.cls-3{opacity:0.1;}.cls-4{fill:#ff9d00;}.cls-5{fill:#ffe600;}.cls-6{fill:#9cc8db;}.cls-7{fill:#008ee5;}.cls-8{fill:#262626;}.cls-11,.cls-12,.cls-9{fill:#fff;}.cls-9{opacity:0.6;}.cls-10{fill:#abccdb;}.cls-11{opacity:0.2;}.cls-13{fill:url(#Degradado_sin_nombre_12-2);}.cls-14{fill:url(#Degradado_sin_nombre_12-3);}.cls-15{fill:url(#Degradado_sin_nombre_12-4);}</style><linearGradient id="Degradado_sin_nombre_12" x1="960" y1="1080" x2="960" gradientUnits="userSpaceOnUse"><stop offset="0" stop-color="#242437"/><stop offset="1" stop-color="#191928"/></linearGradient><linearGradient id="Degradado_sin_nombre_12-2" x1="1064" y1="411" x2="1064" y2="409" xlink:href="#Degradado_sin_nombre_12"/><linearGradient id="Degradado_sin_nombre_12-3" x1="1254" y1="542" x2="1254" y2="540" xlink:href="#Degradado_sin_nombre_12"/><linearGradient id="Degradado_sin_nombre_12-4" x1="670" y1="482" x2="670" y2="480" xlink:href="#Degradado_sin_nombre_12"/></defs><title>bg_1</title><g id="Capa_2" data-name="Capa 2"><g id="fondo"><rect class="cls-1" width="1920" height="1080"/><path class="cls-2" d="M794,418.7c.54-1.43,1.17-2.95,1.91-4.53.92-1.95,1.88-3.71,2.82-5.29a10.77,10.77,0,0,0-5.07-.9c-7.31.52-11,8.83-11.13,9.19a8.09,8.09,0,0,1,5.06-1.79A8.56,8.56,0,0,1,794,418.7Z"/><path class="cls-3" d="M794,418.73a5.47,5.47,0,0,0-1.63-2.34c-2.13-2-6.82-3.24-9.86.78a8.82,8.82,0,0,1,2.31-1.3A8,8,0,0,1,794,418.73Z"/><path class="cls-2" d="M800.55,425.92c1.44-.54,3-1.18,4.54-1.92,1.95-.92,3.71-1.88,5.29-2.82a10.89,10.89,0,0,1,.9,5.07c-.53,7.31-8.83,11-9.19,11.13a8.09,8.09,0,0,0,1.78-5.05A8.5,8.5,0,0,0,800.55,425.92Z"/><path class="cls-4" d="M797,427.22l-4.53-4.54c-2,1.11-2.56,2.15-2.66,2.92s.16,1.25.08,2.64a10.63,10.63,0,0,1-.28,1.83h0a10.63,10.63,0,0,1,1.83-.28c1.39-.08,1.94.18,2.64.09S795.92,429.24,797,427.22Z"/><path class="cls-5" d="M796.57,426.23l-3.09-3.08c-1.56.93-2,1.74-2.14,2.31s0,.92-.09,2a8,8,0,0,1-.32,1.37h0a8.17,8.17,0,0,1,1.37-.31c1-.15,1.43,0,2-.1S795.63,427.79,796.57,426.23Z"/><path class="cls-2" d="M823.42,388.45c-22.11,5.86-29.94,31.63-29.94,31.63h0c-.21.39.87,2,2.52,3.65s3.32,2.77,3.66,2.51h0s25.67-7.95,31.61-29.94Z"/><ellipse class="cls-6" cx="820.29" cy="399.45" rx="5.68" ry="3.91" transform="translate(-42.19 697.03) rotate(-45)"/><ellipse class="cls-7" cx="820.28" cy="399.44" rx="4.92" ry="3.39" transform="translate(-42.19 697.02) rotate(-45)"/><path class="cls-8" d="M796,423.71c-2.08-2.09-2.73-3.37-2.52-3.65a7.6,7.6,0,0,0-.76,1.25,7.06,7.06,0,0,0-.53,1.48h0c-.24.24.63,1.49,1.94,2.8s2.56,2.17,2.8,1.94h0a7.37,7.37,0,0,0,1.48-.54,7.09,7.09,0,0,0,1.24-.75C799.37,426.4,798.2,425.9,796,423.71Z"/><path class="cls-9" d="M818.14,397.29s3.32-3.12,5.6-.84c0,0,1,1.08-1.86.44S818.14,397.29,818.14,397.29Z"/><path class="cls-10" d="M823.4,388.45a15.44,15.44,0,0,0,3,4.89,12.35,12.35,0,0,0,4.89,3,34,34,0,0,0,1.16-7.86l2.69-3.9-3.92,2.67a37.4,37.4,0,0,0-4,.38A35.13,35.13,0,0,0,823.4,388.45Z"/><path class="cls-11" d="M793.34,420.86a6.78,6.78,0,0,0-.78,2s-.19.42,1.74,2.38a1.1,1.1,0,0,1,.22-.84,1.17,1.17,0,0,1,1-.38c0-.05-.76-.8-1.14-1.29A9.82,9.82,0,0,1,793.34,420.86Z"/><path class="cls-3" d="M835.1,384.62l-2.88,4A47.1,47.1,0,0,1,821,410.15s-5.24,5.64-18,11.61c0,0-2.25,1.06-2.55.57s1.44-1.62,2.2-3.9a2,2,0,0,0,.13-1.29c-.26-.47-1.26.06-1.58.16a10.74,10.74,0,0,0-3.24,2.51,28.66,28.66,0,0,0-2.73,3.14c.23.63-.67,3.05-.67,3.05.22.21.43.39.59.53,0,0,.29.25.6.47l.27.2.18.11a2.69,2.69,0,0,0,.29.16,1,1,0,0,0,.31.1.1.1,0,0,0,.09,0,.09.09,0,0,0,0,0,7.16,7.16,0,0,0,1.4-.49,8.63,8.63,0,0,0,1.34-.79c.76-.24.91-.31.91-.31a8.67,8.67,0,0,1,3.2,5.26c.84-.54,7.42-4.4,6.64-9.92a67.23,67.23,0,0,0,5.78-3.83,43.5,43.5,0,0,0,11.46-12.57,34.37,34.37,0,0,0,4.76-16.36Z"/><path class="cls-2" d="M802.73,417s-2.68-1.44-10.67,10.67"/><path class="cls-2" d="M802.73,417s1.44,2.67-10.67,10.67"/><path class="cls-9" d="M828.81,388.93s-21.16,2.64-31.47,27.78C797.34,416.71,807.55,397,828.81,388.93Z"/><path class="cls-9" d="M785.57,413.65s5.66-6.61,11.51-4.58C797.08,409.07,792.8,408.07,785.57,413.65Z"/><path class="cls-2" d="M1414.18,722.66c.74-2,1.62-4.08,2.65-6.27a81.87,81.87,0,0,1,3.9-7.32,15,15,0,0,0-7-1.24c-10.1.73-15.18,12.21-15.39,12.71a11.23,11.23,0,0,1,7-2.47A11.79,11.79,0,0,1,1414.18,722.66Z"/><path class="cls-3" d="M1414.2,722.7a7.44,7.44,0,0,0-2.25-3.24c-2.94-2.75-9.43-4.48-13.63,1.08a12.16,12.16,0,0,1,3.19-1.8C1404.76,717.55,1410,717.47,1414.2,722.7Z"/><path class="cls-2" d="M1423.27,732.64c2-.75,4.09-1.63,6.27-2.66,2.7-1.27,5.14-2.59,7.33-3.89a15.11,15.11,0,0,1,1.24,7c-.73,10.11-12.22,15.18-12.72,15.39a11.14,11.14,0,0,0,2.48-7A11.73,11.73,0,0,0,1423.27,732.64Z"/><path class="cls-4" d="M1418.4,734.44l-6.27-6.28c-2.8,1.53-3.54,3-3.68,4s.23,1.73.12,3.65a14.57,14.57,0,0,1-.39,2.54h0a12.87,12.87,0,0,1,2.54-.39c1.91-.12,2.68.24,3.65.12S1416.87,737.23,1418.4,734.44Z"/><path class="cls-5" d="M1417.76,733.07l-4.26-4.27c-2.16,1.3-2.8,2.42-3,3.21s.07,1.27-.13,2.69a10.84,10.84,0,0,1-.44,1.9h0a12.1,12.1,0,0,1,1.9-.44c1.43-.19,2,0,2.7-.13S1416.46,735.23,1417.76,733.07Z"/><path class="cls-2" d="M1454.9,680.82c-30.58,8.1-41.41,43.75-41.41,43.75h0c-.29.53,1.2,2.76,3.49,5s4.58,3.83,5.06,3.48h0s35.51-11,43.71-41.42Z"/><ellipse class="cls-6" cx="1450.57" cy="696.03" rx="7.86" ry="5.41" transform="translate(-67.3 1229.57) rotate(-45)"/><ellipse class="cls-7" cx="1450.56" cy="696.01" rx="6.8" ry="4.68" transform="translate(-67.3 1229.56) rotate(-45)"/><path class="cls-8" d="M1417,729.58c-2.88-2.88-3.77-4.65-3.49-5a10.35,10.35,0,0,0-1,1.72,11.06,11.06,0,0,0-.74,2h0c-.32.33.88,2.06,2.69,3.87s3.54,3,3.87,2.69h0a11.06,11.06,0,0,0,2-.74,10.35,10.35,0,0,0,1.72-1C1421.64,733.3,1420,732.61,1417,729.58Z"/><path class="cls-9" d="M1447.6,693.05s4.59-4.32,7.74-1.17c0,0,1.44,1.5-2.57.62S1447.6,693.05,1447.6,693.05Z"/><path class="cls-10" d="M1454.87,680.82a21.48,21.48,0,0,0,4.09,6.77,17,17,0,0,0,6.76,4.19,46.51,46.51,0,0,0,1.61-10.86l3.72-5.4-5.42,3.7a47.93,47.93,0,0,0-5.57.52A47.12,47.12,0,0,0,1454.87,680.82Z"/><path class="cls-11" d="M1413.3,725.64a9.09,9.09,0,0,0-1.08,2.72s-.27.57,2.41,3.29a1.48,1.48,0,0,1,.3-1.16,1.57,1.57,0,0,1,1.38-.53,23.08,23.08,0,0,1-1.57-1.79A13.46,13.46,0,0,1,1413.3,725.64Z"/><path class="cls-3" d="M1471.05,675.52l-4,5.5a65.2,65.2,0,0,1-15.55,29.82s-7.24,7.79-24.89,16c0,0-3.11,1.46-3.53.78s2-2.24,3.05-5.39a2.74,2.74,0,0,0,.17-1.78c-.36-.65-1.74.08-2.18.22a14.71,14.71,0,0,0-4.48,3.47,41.57,41.57,0,0,0-3.78,4.34c.33.87-.93,4.22-.93,4.22l.83.74s.4.34.82.65l.38.27a2.86,2.86,0,0,0,.25.16,3.78,3.78,0,0,0,.4.22,2,2,0,0,0,.42.14.31.31,0,0,0,.13,0l.07,0a10.58,10.58,0,0,0,1.94-.68,10.24,10.24,0,0,0,1.84-1.1c1.06-.33,1.26-.42,1.26-.42a12,12,0,0,1,4.43,7.27c1.16-.75,10.26-6.08,9.19-13.72a89.88,89.88,0,0,0,8-5.3,60.17,60.17,0,0,0,15.85-17.38,47.56,47.56,0,0,0,6.58-22.62Z"/><path class="cls-2" d="M1426.28,720.33s-3.7-2-14.76,14.76"/><path class="cls-2" d="M1426.28,720.33s2,3.7-14.76,14.76"/><path class="cls-9" d="M1462.36,681.48s-29.27,3.66-43.53,38.42C1418.83,719.9,1433,692.62,1462.36,681.48Z"/><path class="cls-9" d="M1402.55,715.67s7.82-9.13,15.92-6.34C1418.47,709.33,1412.55,708,1402.55,715.67Z"/><circle class="cls-12" cx="716.29" cy="347.3" r="2.5"/><circle class="cls-12" cx="1163.34" cy="185.28" r="2.5"/><circle class="cls-12" cx="1363" cy="114.79" r="2.5"/><circle class="cls-12" cx="140.74" cy="458.5" r="2.5"/><circle class="cls-12" cx="367.77" cy="347.3" r="2.5"/><circle class="cls-12" cx="107.23" cy="190.28" r="2.5"/><circle class="cls-12" cx="1321.66" cy="385.5" r="2.5"/><circle class="cls-12" cx="1805" cy="231.5" r="2.5"/><circle class="cls-12" cx="806.3" cy="122.26" r="2.5"/><circle class="cls-12" cx="1724.4" cy="53.27" r="2.5"/><circle class="cls-12" cx="143.24" cy="58.27" r="2.5"/><circle class="cls-12" cx="1637.39" cy="482.5" r="2.5"/><circle class="cls-13" cx="1064" cy="410" r="1"/><circle class="cls-14" cx="1254" cy="541" r="1"/><circle class="cls-15" cx="670" cy="481" r="1"/><circle class="cls-12" cx="552" cy="274" r="1"/><circle class="cls-12" cx="838" cy="276" r="1"/><circle class="cls-12" cx="692" cy="610" r="1"/><circle class="cls-12" cx="1428" cy="586" r="1"/><circle class="cls-12" cx="1490" cy="276" r="1"/><circle class="cls-12" cx="172" cy="162" r="1"/><circle class="cls-12" cx="226" cy="481" r="1"/><circle class="cls-12" cx="512" cy="61.77" r="1"/><circle class="cls-12" cx="1078" cy="318" r="1"/><circle class="cls-12" cx="158" cy="336" r="1"/><circle class="cls-12" cx="1184" cy="30" r="1"/></g></g></svg>